<svg width="98" height="98" viewBox="0 0 98 98" fill="none" xmlns="http://www.w3.org/2000/svg">
<path d="M38.5874 16.3333L20.2124 28.175L0.408203 41.0375L36.7499 64.5167L54.9207 52.8792V58.5958L36.7499 70.2333L5.10404 49.8167C4.0832 49.2042 2.8582 49.4083 2.2457 50.4292C1.6332 51.45 1.83737 52.675 2.8582 53.2875L35.5249 74.3167C35.9332 74.5208 36.3415 74.725 36.5457 74.725C36.7499 74.725 37.3624 74.5208 37.5665 74.3167L54.5124 63.2917V69.0083L36.7499 80.85L5.10404 60.4333C4.0832 59.8208 2.8582 60.025 2.2457 61.0458C1.83737 62.0667 2.04154 63.2917 3.06237 63.9042L35.729 84.9333C36.1374 85.1375 36.5457 85.3417 36.7499 85.3417C36.954 85.3417 37.5665 85.1375 37.7707 84.9333L54.7165 73.9083V79.625L36.7499 91.4667L5.10404 71.05C4.0832 70.4375 2.8582 70.6417 2.2457 71.6625C1.6332 72.6833 1.83737 73.9083 2.8582 74.5208L35.5249 95.55C35.9332 95.7542 36.3415 95.9583 36.5457 95.9583C36.7499 95.9583 37.3624 95.7542 37.5665 95.55L54.5124 84.525L74.1124 71.8667L94.7332 58.5958C95.754 57.9833 95.9582 56.7583 95.3457 55.7375C94.7332 54.7167 93.5082 54.5125 92.4874 55.125L74.1124 66.9667V61.25L94.7332 47.9792C95.754 47.3667 95.9582 46.1417 95.3457 45.1208C94.7332 44.1 93.5082 43.8958 92.4874 44.5083L74.1124 56.35V50.6333L94.7332 37.3625C95.754 36.75 95.9582 35.525 95.3457 34.5042C94.7332 33.4833 93.5082 33.2792 92.4874 33.8917L74.1124 45.7333V40.0167L97.3874 25.1125L61.2499 1.63333L38.5874 16.3333ZM7.7582 41.0375L23.8874 30.625L25.7249 31.6458L14.6999 38.7917L17.354 40.425C17.7624 40.6292 17.9665 41.0375 17.9665 41.0375C17.9665 41.0375 17.9665 41.2417 17.354 41.65L14.6999 43.2833L32.4624 54.7167L33.4832 53.9C34.7082 53.0833 36.954 53.0833 38.3832 53.9L39.404 54.7167L50.6332 47.3667L53.0832 48.7958L36.7499 59.4125L7.7582 41.0375ZM21.6415 39.4042L29.604 34.0958L46.9582 45.1208L39.404 50.0208C37.3624 49.2042 34.7082 49.2042 32.6665 50.0208L21.6415 42.875C21.8457 42.2625 22.0499 41.65 22.0499 41.0375C22.0499 40.6292 21.8457 40.0167 21.6415 39.4042ZM59.004 77.175V47.9792L27.7665 28.175L32.2582 25.3167L39.404 20.6208L70.4374 40.2208V69.825L59.004 77.175ZM74.929 26.7458L65.9457 32.6667L48.3874 21.6417L57.1665 15.925C59.2082 16.7417 61.8624 16.7417 63.904 15.925L74.929 23.0708C74.7249 23.6833 74.5207 24.2958 74.5207 24.9083C74.5207 25.5208 74.7249 26.1333 74.929 26.7458ZM72.479 36.5458L69.8249 34.9125L81.8707 26.95L79.2165 25.3167C78.8082 25.1125 78.604 24.7042 78.604 24.7042C78.604 24.7042 78.604 24.5 79.2165 24.0917L81.8707 22.4583L64.1082 11.025L63.0874 11.8417C61.8624 12.6583 59.6165 12.6583 58.1874 11.8417L57.1665 11.025L44.9165 19.1917L43.2832 18.1708L61.2499 6.53333L90.2415 25.1125L72.479 36.5458Z" fill="white"/>
<path d="M33.0742 43.4875C34.0951 44.1 35.7284 44.1 36.5451 43.4875C37.5659 42.875 37.5659 41.8542 36.5451 41.2417C35.5242 40.6292 33.8909 40.6292 33.0742 41.2417C32.0534 41.8542 32.0534 42.875 33.0742 43.4875Z" fill="white"/>
<path d="M63.6994 23.6833C62.6785 23.0708 61.0452 23.0708 60.2285 23.6833C59.2077 24.2958 59.2077 25.3167 60.2285 25.9292C61.2493 26.5417 62.8827 26.5417 63.6994 25.9292C64.7202 25.3167 64.7202 24.2958 63.6994 23.6833Z" fill="white"/>
</svg>
