<svg width="177" height="545" viewBox="0 0 177 545" fill="none" xmlns="http://www.w3.org/2000/svg">
<path d="M163.632 543.589C159.135 543.7 154.646 543.489 150.193 542.873C145.074 542.161 143.498 540.654 142.393 535.597C141.415 531.103 140.719 526.544 138.741 522.312C137.252 519.122 135.302 516.32 132.477 514.199C131.304 513.318 129.971 511.983 128.499 512.679C127.187 513.3 127.428 515.1 127.369 516.441C127.125 521.963 126.956 527.489 126.761 533.013C126.725 534.048 126.799 535.096 126.655 536.118C126.512 537.148 127.233 538.92 125.656 538.974C123.923 539.031 124.657 537.225 124.621 536.244C124.398 530.145 124.295 524.043 124.121 517.941C124.01 514.024 123.597 510.139 122.985 506.263C121.881 499.275 124.29 494.624 130.59 491.378C132.4 490.446 132.798 488.897 132.901 487.089C133.089 483.715 132.459 480.432 131.812 477.161C131.543 475.789 131.697 475.26 133.304 475.538C137.262 476.226 141.104 475.255 144.859 474.189C146.823 473.629 147.568 473.75 148.169 475.992C152.373 491.673 156.531 507.337 157.096 523.701C157.23 527.541 159.138 530.273 162.72 532.109C166.496 534.041 170.042 536.445 173.589 538.794C174.85 539.632 176.845 540.587 176.27 542.354C175.774 543.867 173.712 543.525 172.269 543.566C169.393 543.646 166.511 543.589 163.632 543.589Z" fill="#B12054" fill-opacity="0.2"/>
<path d="M44.3579 530.946C45.4468 524.985 46.3354 518.362 46.6179 511.69C47.1469 499.206 47.8558 486.694 44.6533 474.402C43.9701 471.775 43.9316 470.067 47.599 470.899C49.728 471.382 51.9109 470.496 53.9732 469.744C55.5552 469.166 56.5311 469.276 56.7134 471.362C57.2707 477.718 59.1455 483.746 61.5545 489.627C63.4035 494.144 64.2459 498.836 64.4642 503.739C64.8854 513.264 64.5977 522.861 66.9528 532.228C67.7232 535.299 66.0591 537.485 64.0764 539.562C57.3837 546.579 57.4017 546.597 50.0285 540.479C45.3698 536.614 44.2321 534.832 44.3579 530.946Z" fill="#B12054" fill-opacity="0.2"/>
<path fill-rule="evenodd" clip-rule="evenodd" d="M51.2686 253.749C50.5212 260.031 49.779 266.318 49.0214 272.6C48.8134 274.326 48.7775 276.147 46.2118 276.064C44.1445 276 44.6273 277.541 44.7274 278.776C45.6211 289.92 46.4147 301.073 47.4343 312.206C48.5823 324.713 49.946 337.2 51.1838 349.697C51.3533 351.415 51.5845 353.187 51.3533 354.874C48.9572 372.366 52.7324 389.575 53.5979 406.916C54.561 426.141 55.2107 445.382 55.994 464.615C56.012 465.075 56.1584 465.691 55.9247 465.971C53.7058 468.66 50.5315 468.691 47.4497 468.77C45.2924 468.824 43.3868 468.457 42.7987 465.73C35.9776 434.108 27.2355 402.804 28.9947 369.898C29.9809 351.458 25.0654 333.8 20.3811 316.177C16.5339 301.7 12.7253 287.21 9.06565 272.682C8.30033 269.654 7.12409 267.358 4.032 266.323C1.63332 265.519 0.96817 263.95 1.05549 261.308C1.56656 245.667 3.95496 230.353 8.22328 215.311C9.07848 212.302 10.057 209.31 11.6826 206.675C13.542 203.657 13.6935 200.714 12.6226 197.468C11.9754 195.506 11.413 193.477 11.151 191.432C10.5295 186.579 12.0396 182.554 16.3464 179.873C19.0944 178.163 21.6985 176.278 23.9457 173.93C25.6381 172.166 27.6978 171.431 30.1504 171.414C33.2476 171.39 36.4348 167.941 36.3808 164.993C36.3629 164.043 35.6617 163.968 35.1147 163.611C28.2679 159.12 26.6525 155.555 29.5366 148.295C32.0457 141.977 31.2676 135.605 31.3575 129.195C31.3754 127.816 30.7873 127.13 29.4955 126.727C25.484 125.482 22.0041 123.347 19.2562 120.017C16.7034 125.302 17.3249 127.102 23.3679 132.218C21.2645 132.321 19.4231 131.699 17.6742 130.867C13.7346 128.99 12.2733 125.474 14.5744 121.74C16.9757 117.846 16.7676 114.801 14.1327 111.097C11.7571 107.761 10.152 103.883 7.84319 100.416C4.61499 95.5751 5.40342 92.1235 9.93113 88.4407C11.6287 87.059 13.3828 85.7441 15.0444 84.3188C17.9387 81.8328 18.9146 78.7227 17.7564 74.4082C15.8996 78.9667 12.3709 81.2652 8.89871 83.6382C-0.0873584 89.7762 -0.729397 97.4088 7.0599 105.129C7.30388 105.37 7.51189 105.65 7.76101 105.938C0.780689 104.22 -2.26004 94.892 1.8696 87.981C3.37969 85.4513 5.51898 83.5586 7.95362 81.9509C9.49196 80.9365 11.0534 79.9374 12.4788 78.7766C16.0537 75.8617 16.4851 73.4733 14.3227 69.413C13.8373 68.4962 13.2749 67.6179 12.8306 66.6831C11.0072 62.8667 11.4566 59.2764 14.1506 56.0508C15.7737 54.1067 17.5843 52.3192 19.2819 50.4342C21.6009 47.8583 22.338 44.9049 20.5069 41.8616C17.1349 36.2527 18.1365 31.124 21.6369 26.0519C25.3043 20.7383 28.5119 15.2013 31.1392 9.24568C34.8553 0.829746 45.8446 -2.59364 54.5481 2.15493C64.957 7.83831 73.7761 15.6096 81.0621 25.0297C81.6168 25.7488 82.2588 26.5963 82.3564 27.4412C82.9908 32.8421 86.5374 35.8803 90.6183 38.9184C95.2949 42.4009 97.822 47.0519 94.7941 53.0666C94.3807 53.8832 94.7017 54.5458 95.0484 55.3266C98.3279 62.7229 96.746 66.6163 89.2828 69.6878C88.045 70.1963 86.7865 70.6509 85.0992 71.3007C88.6228 73.8432 92.2259 74.3927 95.8805 74.5956C100.262 74.8396 104.628 74.4082 109.001 74.0948C116.947 73.5247 120.319 75.7873 122.4 83.425C125.327 94.1626 126.134 105.226 126.542 116.28C126.938 126.989 126.817 137.719 126.896 148.439C126.914 150.894 127.312 153.192 128.463 155.432C131.273 160.897 131.172 164.079 126.722 168.17C122.559 171.994 121.192 174.927 124.567 180.41C128.101 186.15 123.594 192.858 116.896 192.943C113.442 192.986 109.487 194.666 106.695 190.821C106.171 190.1 105.524 191.06 105.085 191.528C101.533 195.305 98.0223 199.124 94.4269 202.858C93.3868 203.94 93.5152 205.131 93.5922 206.397C93.8567 210.653 94.2522 214.906 94.337 219.164C94.4551 224.999 95.7341 230.433 97.9402 235.893C101.749 245.323 104.558 255.37 104.671 265.412C104.838 280.122 110.691 293.287 113.763 307.175C117.119 322.351 121.47 337.295 127.32 351.751C128.941 355.755 129.305 360.016 129.521 364.292C130.294 379.547 133.936 394.355 136.517 409.335C139.938 429.192 143.127 449.093 146.466 468.966C146.759 470.709 146.225 471.416 144.545 471.888C140.96 472.897 137.364 473.442 133.633 473.298C131.743 473.226 130.713 472.548 130.212 470.655C126.1 455.139 119.937 440.325 114.492 425.268C109.985 412.802 106.862 400.023 107.34 386.735C107.894 371.305 103.97 357.139 97.2596 343.459C87.01 322.561 76.9144 301.587 66.878 280.584C65.5014 277.705 63.7679 276.488 60.5346 276.524C55.3597 276.583 55.3546 276.38 54.5636 271.211C53.7443 265.861 52.9302 260.506 52.1058 255.157C52.0365 254.712 51.8824 254.278 51.7694 253.839C51.6033 253.81 51.4364 253.78 51.2686 253.749ZM106.12 143.562C103.86 148.572 101.862 153.724 99.2679 158.555C96.6021 163.514 94.6118 169.213 88.5534 171.439C87.6058 171.786 87.8806 172.77 87.6751 173.514C86.6479 177.261 88.3788 180.289 89.7477 183.615C91.0317 186.735 92.1823 186.252 94.0802 184.619C94.6888 184.095 95.2872 183.558 95.8856 183.022C97.5344 181.542 98.5617 180.405 96.5302 178.006C93.5948 174.539 93.9543 169.284 96.4326 165.412C98.2689 162.54 101.104 161.107 103.991 159.651C106.857 158.205 109.107 155.93 108.352 152.602C107.676 149.622 106.998 146.649 106.12 143.562ZM84.2389 37.3544C84.9734 42.9633 87.7214 47.2804 91.4272 51.1045C92.0179 51.7157 92.434 52.9099 93.5383 52.4836C94.5065 52.1086 94.355 50.917 94.5091 50.0823C95.3925 45.3184 90.7133 39.4192 84.2389 37.3544ZM86.4655 68.8429C89.7785 67.605 92.9604 66.0667 93.1762 62.2144C93.3816 58.506 90.7056 56.3744 87.4003 54.2145C89.1647 59.5332 89.6963 64.2972 86.4655 68.8429ZM18.3933 114.474C19.6106 110.542 17.4944 108.722 14.8774 107.145C15.5837 109.654 16.367 112.127 18.3933 114.474Z" fill="#B12054" fill-opacity="0.2"/>
</svg>
