<svg width="17" height="17" viewBox="0 0 17 17" fill="none" xmlns="http://www.w3.org/2000/svg">
<g clip-path="url(#clip0_1_127)">
<path d="M13.5607 10.618C13.5426 10.636 13.5267 10.6569 13.5089 10.6749L8.5 15.4075L3.5209 10.7038C3.49305 10.676 3.46969 10.6458 3.44204 10.6167C1.35722 11.2627 0 12.2935 0 13.4583C0 15.4146 3.80587 17 8.5 17C13.1956 17 17 15.4146 17 13.4583C17 12.2935 15.6442 11.2627 13.5607 10.618Z" fill="#53001E"/>
<path d="M14.1656 5.66653C14.1656 2.54 11.6296 0 8.49974 0C5.37176 0.00128662 2.83301 2.53705 2.83301 5.66802C2.83301 7.23118 3.46731 8.64792 4.49329 9.67323L8.49974 13.4583L12.5069 9.67174C13.532 8.64813 14.1665 7.23139 14.1665 5.66653H14.1656ZM8.49974 8.5C6.93447 8.5 5.66648 7.23264 5.66648 5.66653C5.66648 4.10187 6.93447 2.83326 8.49974 2.83326C10.0644 2.83326 11.333 4.10187 11.333 5.66653C11.333 7.23264 10.0644 8.5 8.49974 8.5Z" fill="#53001E"/>
</g>
<defs>
<clipPath id="clip0_1_127">
<rect width="17" height="17" rx="8.5" fill="white"/>
</clipPath>
</defs>
</svg>
