<svg width="76" height="111" viewBox="0 0 76 111" fill="none" xmlns="http://www.w3.org/2000/svg">
<path d="M1.82326 48.7098C2.90204 47.2678 4.26624 46.0635 5.83087 45.1719L27.1603 32.9835C29.0411 31.9099 31.1691 31.3447 33.3348 31.3438H34.2069V14.9754C34.2065 13.4065 34.4594 11.8478 34.9559 10.3596L35.0829 9.97907C36.0491 7.0716 37.9069 4.54252 40.3924 2.75112C42.8779 0.95972 45.8647 -0.00290223 48.9285 6.57284e-06H50.9567C52.8732 -8.42316e-05 54.771 0.377344 56.5417 1.11074C58.3124 1.84413 59.9213 2.91913 61.2765 4.27435C62.6317 5.62956 63.7067 7.23845 64.4401 9.00914C65.1735 10.7798 65.5509 12.6776 65.5509 14.5942V35.0313C65.5509 35.0748 65.5474 35.1175 65.5444 35.1603L66.3884 35.4599C68.2805 36.0167 70.0223 36.9942 71.4833 38.3192C72.9443 39.6443 74.0867 41.2826 74.8252 43.1115C76.0699 46.2082 76.0699 49.6661 74.8252 52.7628L69.2384 66.7292V97.4192L72.8314 108.198C72.9238 108.475 72.949 108.77 72.9049 109.059C72.8608 109.348 72.7488 109.622 72.5779 109.859C72.4071 110.096 72.1824 110.289 71.9223 110.422C71.6623 110.555 71.3743 110.625 71.0821 110.625H47.1134C46.8369 110.625 46.564 110.563 46.3147 110.443C46.0655 110.323 45.8464 110.149 45.6736 109.933L39.167 101.8C36.9787 102.572 34.6093 102.673 32.3634 102.088V108.781C32.3634 109.27 32.1691 109.739 31.8233 110.085C31.4776 110.431 31.0086 110.625 30.5196 110.625H13.9259C13.4369 110.625 12.9679 110.431 12.6221 110.085C12.2764 109.739 12.0821 109.27 12.0821 108.781V95.0914C12.0824 91.6506 13.0175 88.2745 14.7876 85.3239L17.8046 80.2953C17.8728 80.1545 17.9621 80.0249 18.0695 79.9111L18.099 79.8775L21.1845 76.3513L3.22934 61.1588C1.45345 59.6532 0.319084 57.5266 0.0577774 55.2131C-0.203529 52.8996 0.427925 50.5736 1.82326 48.7098ZM61.8631 14.5942C61.8632 13.1619 61.5811 11.7437 61.033 10.4204C60.4849 9.09715 59.6815 7.8948 58.6688 6.88202C57.656 5.86924 56.4537 5.06585 55.1304 4.51773C53.8072 3.96962 52.3889 3.68751 50.9567 3.68751H48.9285C46.6387 3.68519 44.4063 4.40459 42.5486 5.74347C40.691 7.08236 39.3025 8.97263 38.5805 11.1457L38.4535 11.5262C38.0825 12.6383 37.8935 13.803 37.8937 14.9754V31.3438H40.1419L41.5321 25.7876C40.3513 23.6887 39.7331 21.3203 39.7374 18.912V18.4375C39.7374 18.0112 39.8851 17.5981 40.1554 17.2685C40.4257 16.9388 40.8018 16.713 41.2198 16.6295L42.353 16.4029C44.598 15.9615 46.7114 15.0095 48.5297 13.6208C50.348 12.2321 51.8226 10.4438 52.8394 8.39414C52.9838 8.10527 53.2015 7.85941 53.4708 7.68116C53.7402 7.50291 54.0516 7.39852 54.3739 7.37845C54.6962 7.35838 55.0182 7.42333 55.3075 7.5668C55.5969 7.71027 55.8434 7.92722 56.0226 8.19594L59.7101 13.7272C59.9117 14.0302 60.0193 14.386 60.0194 14.75V18.912C60.0287 22.4299 58.7087 25.8215 56.3236 28.4074C56.3284 28.4622 56.3319 28.5173 56.3319 28.5733V31.886L61.8631 33.8517V14.5942ZM25.6461 64.4255L30.2721 63.7988H30.2776L28.9397 49.0811L16.9579 55.7377L25.6461 64.4255ZM33.6945 67.2556C33.6707 67.3605 33.6377 67.4631 33.5959 67.5621L32.7047 69.6414L37.3532 74.29C37.5245 74.4612 37.6603 74.6645 37.7529 74.8882C37.8456 75.1119 37.8933 75.3516 37.8933 75.5938C37.8933 75.8359 37.8456 76.0756 37.7529 76.2993C37.6603 76.523 37.5245 76.7263 37.3532 76.8975L31.822 82.4288C31.5082 82.7426 31.0917 82.9327 30.6489 82.9641C30.2062 82.9956 29.767 82.8663 29.412 82.6L24.1006 78.6164L22.1833 80.8076L29.45 85.9978C31.1741 87.2294 33.1652 88.0356 35.2604 88.3507C37.3557 88.6657 39.4957 88.4807 41.5058 87.8107L48.9557 85.3271V77.2107C48.9576 75.7457 49.4562 74.3246 50.3699 73.1794L55.8495 66.3312C54.4462 66.2044 53.0892 65.7645 51.8783 65.0439C50.6674 64.3234 49.6335 63.3405 48.8527 62.1676L47.4367 60.0433L45.5542 61.9258C44.5195 62.9623 43.2445 63.7268 41.8428 64.1512C40.4411 64.5756 38.9562 64.6468 37.5203 64.3584C36.229 64.1008 34.9991 63.598 33.8971 62.8772L34.0748 64.8318C34.1482 65.6587 34.0176 66.4909 33.6945 67.2556ZM61.7629 51.8603L59.389 47.1127L54.7566 50.8184C53.2545 52.0252 52.1874 53.6893 51.7172 55.558L50.9426 58.6559L51.9202 60.1222C52.5027 60.9954 53.3126 61.6929 54.2625 62.1394C55.2124 62.586 56.2663 62.7645 57.3103 62.6558C58.3542 62.5471 59.3487 62.1553 60.1863 61.5227C61.0238 60.89 61.6727 60.0406 62.0627 59.0661C62.5239 57.9121 62.7358 56.6736 62.6843 55.4319C62.6328 54.1901 62.3192 52.9734 61.764 51.8615L61.7629 51.8603ZM56.3307 91.6282V71.6313L53.2494 75.4829C52.8577 75.974 52.644 76.5833 52.6432 77.2114V86.0988L56.3307 91.6282ZM33.3117 56.4561C33.6889 57.538 34.3422 58.5026 35.207 59.2542C36.0717 60.0059 37.1178 60.5186 38.2417 60.7414C39.0824 60.9105 39.9519 60.8689 40.7726 60.6204C41.5934 60.3719 42.3399 59.9242 42.9456 59.3171L44.8686 57.3941L42.6665 52.9898C42.2076 52.0742 41.5428 51.2775 40.7241 50.6621L36.4182 47.4326L34.2578 50.3134C33.6115 51.1767 33.1866 52.1852 33.0204 53.2507L33.3117 56.4561ZM42.9366 47.7126C44.2126 48.6718 45.2491 49.9136 45.9647 51.3406L47.9682 55.3478L48.1394 54.6626C48.8079 52.012 50.323 49.652 52.4547 47.9407L57.7039 43.7414L52.8391 34.0119C52.7474 33.7441 52.6822 33.468 52.6444 33.1875V30.8849C51.2614 31.3579 49.7801 31.4677 48.3425 31.2038C46.9049 30.9399 45.5592 30.3112 44.4344 29.3779C44.4344 29.3779 43.2438 33.984 43.2401 33.9911L38.285 44.224L42.9366 47.7126ZM46.4602 26.2393C46.9089 26.6882 47.4417 27.0443 48.0281 27.2872C48.6144 27.5301 49.2429 27.6551 49.8776 27.6551C50.5123 27.6551 51.1408 27.5301 51.7271 27.2872C52.3135 27.0443 52.8463 26.6882 53.295 26.2393C54.2606 25.2792 55.026 24.1371 55.5471 22.879C56.0682 21.621 56.3346 20.2721 56.3307 18.9104V15.3082L54.561 12.6527C51.8893 16.3633 47.9417 18.9568 43.4754 19.9356C43.7059 22.3209 44.7619 24.5509 46.4614 26.2405L46.4602 26.2393ZM65.6836 65.6903L71.4011 51.3945C72.2928 49.1767 72.2928 46.7 71.4011 44.4821C70.8695 43.1654 70.0455 41.9867 68.9915 41.0353C67.9374 40.0838 66.6808 39.3844 65.3167 38.99C65.2794 38.9792 58.1846 36.459 58.1846 36.459L61.6684 43.4263L65.0613 50.2125C65.8494 51.7901 66.2946 53.5166 66.3679 55.2785C66.4412 57.0405 66.1408 58.798 65.4866 60.4356C65.0007 61.6604 64.2629 62.7694 63.321 63.6908C62.379 64.6121 61.2539 65.3252 60.0187 65.7839V95.875C60.0187 96.1171 59.971 96.3569 59.8784 96.5806C59.7857 96.8043 59.6499 97.0076 59.4787 97.1788L56.7308 99.9266L57.1563 100.776L59.1948 99.7573C59.581 99.5641 60.0228 99.5126 60.4431 99.6118C60.8634 99.711 61.2355 99.9545 61.4946 100.3L66.4727 106.938H68.5239L65.6451 98.3018C65.5826 98.1138 65.5507 97.9169 65.5506 97.7188V66.375C65.551 66.1404 65.5961 65.908 65.6836 65.6903ZM47.9993 106.938H61.8631L59.4679 103.744L57.1563 104.899C56.7189 105.118 56.2126 105.154 55.7487 104.999C55.2848 104.844 54.9014 104.512 54.6826 104.075L53.1357 100.981C52.8755 100.462 52.7854 99.874 52.8783 99.3008C52.9712 98.7276 53.2423 98.1982 53.6531 97.7879L55.0645 96.3767L53.6379 94.2368L53.3003 94.3041C49.2028 95.1196 45.3907 96.995 42.244 99.7432L47.9993 106.938ZM38.6616 98.034C42.2059 94.5635 46.6206 92.1133 51.4406 90.9414L50.047 88.8505L42.672 91.309C40.1101 92.1629 37.3825 92.3987 34.712 91.9971C32.0415 91.5955 29.5039 90.5679 27.3064 88.9983L20.0091 83.786L18.4728 86.3467L24.8731 91.0121C27.0371 92.5894 28.9606 94.4726 30.5832 96.6028L31.6434 97.993L32.7245 98.3532C34.6718 99.0083 36.7958 98.8941 38.6616 98.034ZM15.7694 106.938H28.6756V100.185L27.6489 98.8372C26.2428 96.9913 24.5762 95.3592 22.7012 93.9921L16.7666 89.6648C16.1082 91.3984 15.7705 93.2372 15.7698 95.0916L15.7694 106.938ZM5.6117 58.3429L24.294 74.1513L30.3463 78.6915L33.4433 75.5938L29.2156 71.3663C28.9549 71.1058 28.7783 70.7732 28.7084 70.4114C28.6386 70.0495 28.6788 69.6751 28.8238 69.3363L29.5613 67.6163L25.235 68.2022C25.1645 68.214 25.0932 68.2189 25.0218 68.2169C24.774 68.2221 24.5277 68.1771 24.2977 68.0846C24.0677 67.9922 23.8589 67.8541 23.6837 67.6788L12.6212 56.6163C12.4194 56.4145 12.2672 56.1686 12.1766 55.8979C12.086 55.6273 12.0595 55.3394 12.0991 55.0568C12.1387 54.7741 12.2434 54.5046 12.4049 54.2693C12.5664 54.034 12.7803 53.8394 13.0298 53.7008L29.6236 44.4821C29.8918 44.3331 30.193 44.2534 30.4999 44.2503C30.8067 44.2472 31.1095 44.3207 31.3807 44.4641C31.652 44.6076 31.8831 44.8165 32.0532 45.0719C32.2233 45.3273 32.327 45.6211 32.3548 45.9267L32.418 46.6227L34.1405 44.3261C34.1474 44.3109 34.1527 44.2952 34.1601 44.28L38.6402 35.0313H33.3348C31.8108 35.0318 30.3132 35.4296 28.9898 36.1852L7.66057 48.3733C6.53333 49.0157 5.55041 49.8833 4.77302 50.9221C3.94145 52.0332 3.56521 53.4197 3.72106 54.7988C3.87691 56.1778 4.55313 57.4454 5.6117 58.3429Z" fill="#FFCEDE"/>
</svg>
