<svg width="42" height="42" viewBox="0 0 42 42" fill="none" xmlns="http://www.w3.org/2000/svg">
<path d="M21 37.9668C20.7146 37.9668 20.4292 37.8827 20.18 37.7143C17.4763 35.8865 8.20521 29.3175 2.42242 21.5253C0.729621 19.2443 -0.12539 16.4847 0.014883 13.7548C0.15368 11.0524 1.25019 8.54402 3.10213 6.69192C4.91666 4.87747 7.27629 3.95815 9.93246 4.03772C12.369 4.1095 14.8265 5.03547 16.852 6.64516C18.6203 8.05044 19.9892 9.50445 20.8263 10.4766C20.8858 10.5458 20.9607 10.5562 21 10.5562C21.0392 10.5562 21.1141 10.5458 21.1736 10.4766C22.0106 9.50436 23.3795 8.05044 25.1479 6.64516C27.1734 5.03547 29.6308 4.1095 32.0674 4.03772C34.7252 3.96168 37.0832 4.87739 38.8978 6.69192C40.7498 8.54402 41.8462 11.0524 41.985 13.7548C42.1253 16.4847 41.2703 19.2443 39.5775 21.5253C33.7947 29.3175 24.5235 35.8865 21.8198 37.7143C21.571 37.8827 21.2854 37.9668 21 37.9668Z" fill="#B12054"/>
</svg>
