<svg width="103" height="103" viewBox="0 0 103 103" fill="none" xmlns="http://www.w3.org/2000/svg">
<g clip-path="url(#clip0_62_346)">
<path d="M51.2596 0C41.1237 0.00197773 31.216 3.00942 22.7893 8.64204C14.3626 14.2747 7.79532 22.2795 3.91786 31.6444C0.0404007 41.0093 -0.973093 51.3136 1.00553 61.2545C2.98415 71.1954 7.86603 80.3263 15.0339 87.4928C22.2017 94.6592 31.3336 99.5393 41.2749 101.516C51.2161 103.493 61.5203 102.477 70.8844 98.5979C80.2485 94.7186 88.2521 88.1497 93.8831 79.7219C99.5141 71.2941 102.52 61.3859 102.52 51.25C102.501 37.6616 97.0942 24.6352 87.4848 15.0277C77.8754 5.42019 64.8479 0.015874 51.2596 0ZM74.0996 55.78L43.8396 75.78C43.0212 76.3198 42.072 76.628 41.0926 76.6719C40.1132 76.7158 39.1402 76.4937 38.2769 76.0292C37.4135 75.5648 36.6921 74.8752 36.189 74.0338C35.6859 73.1923 35.42 72.2304 35.4196 71.25V31.28C35.42 30.2996 35.6859 29.3377 36.189 28.4962C36.6921 27.6548 37.4135 26.9653 38.2769 26.5008C39.1402 26.0363 40.1132 25.8142 41.0926 25.8581C42.072 25.902 43.0212 26.2102 43.8396 26.75L74.0996 46.75C74.8505 47.2445 75.4669 47.9177 75.8934 48.7093C76.3199 49.5008 76.5431 50.3859 76.5431 51.285C76.5431 52.1841 76.3199 53.0692 75.8934 53.8607C75.4669 54.6523 74.8505 55.3255 74.0996 55.82V55.78Z" fill="#FFCEDE"/>
</g>
<defs>
<clipPath id="clip0_62_346">
<rect width="102.52" height="102.5" fill="white"/>
</clipPath>
</defs>
</svg>
