<svg width="29" height="51" viewBox="0 0 29 51" fill="none" xmlns="http://www.w3.org/2000/svg">
<path d="M25.1692 0H3.71012C1.65788 0 0 1.66432 0 3.71655V47.2883C0 49.3341 1.65788 51 3.71012 51H25.1692C27.2182 51 28.8826 49.3357 28.8826 47.2883V3.71655C28.881 1.66432 27.2182 0 25.1692 0ZM26.0996 41.3215H2.78299V6.26937H26.0996V41.3215ZM19.4149 3.77128H9.46603V2.68641H19.4165L19.4149 3.77128ZM23.6723 3.27552C23.6723 3.80025 23.2442 4.22519 22.721 4.22519C22.1963 4.22519 21.7698 3.79864 21.7698 3.27552C21.7698 2.75241 22.1963 2.32586 22.721 2.32586C23.2458 2.32425 23.6723 2.7508 23.6723 3.27552ZM18.9691 47.0404H9.90866V44.2526H18.9691V47.0404Z" fill="white"/>
</svg>
