<svg width="23" height="23" viewBox="0 0 23 23" fill="none" xmlns="http://www.w3.org/2000/svg">
<g clip-path="url(#clip0_1_45)">
<path d="M0 23L1.978 17.0664C0.974328 15.3783 0.396552 13.4082 0.396552 11.3017C0.396552 5.06 5.45655 0 11.6983 0C17.94 0 23 5.06 23 11.3017C23 17.5434 17.94 22.6034 11.6983 22.6034C9.79919 22.6034 8.01074 22.1327 6.44 21.3055L0 23Z" fill="#2CB742"/>
<path d="M17.5325 14.3061C17.1121 13.5116 15.5619 12.6031 15.5619 12.6031C15.2111 12.4032 14.7878 12.3808 14.5879 12.7373C14.5879 12.7373 14.0841 13.3414 13.956 13.4282C13.3708 13.8247 12.8287 13.8093 12.2815 13.2621L11.0098 11.9904L9.73804 10.7188C9.19083 10.1716 9.1755 9.62947 9.57193 9.04425C9.65882 8.91616 10.2629 8.4124 10.2629 8.4124C10.6194 8.21211 10.597 7.78918 10.3971 7.43843C10.3971 7.43843 9.48856 5.88819 8.6941 5.46781C8.35612 5.28892 7.94116 5.35153 7.67091 5.62178L7.10933 6.18335C5.32778 7.96487 6.20498 9.97606 7.98653 11.7576L9.61474 13.3858L11.243 15.0139C13.0245 16.7955 15.0357 17.6726 16.8173 15.8911L17.3789 15.3295C17.6491 15.0587 17.7114 14.6437 17.5325 14.3061Z" fill="white"/>
</g>
<defs>
<clipPath id="clip0_1_45">
<rect width="23" height="23" fill="white"/>
</clipPath>
</defs>
</svg>
